<svg width="50px" height="50px" viewBox="0 0 830 625" version="1.1">
  <title>Logo</title>
  <g id="Logo" stroke="none" strokeWidth="1" fill="none" fillRule="evenodd">
    <g id="Logo---White-Space-LG" transform="translate(-285.000000, -388.000000)">
      <g id="Logo-with-Brand" transform="translate(285.000000, 388.000000)" fill="#49B884">
        <path d="M829.429,600 L829.429,625 L0.453,625 L21.585,600 L829.429,600 Z M829.429,550 L829.429,575 L42.718,575 L63.85,550 L829.429,550 Z M829.429,500 L829.429,525 L84.983,525 L106.115,500 L829.429,500 Z M829.429,450 L829.429,475 L127.248,475 L148.38,450 L829.429,450 Z M829.429,400 L829.429,425 L169.513,425 L190.645,400 L829.429,400 Z M515.709,350 L514.777,375 L211.778,375 L232.91,350 L515.709,350 Z M829.429,350 L829.429,375 L539.095,375 L558.451,350 L829.429,350 Z M517.575,300 L516.642,325 L254.043,325 L275.175,300 L517.575,300 Z M829.429,300 L829.429,325 L577.807,325 L597.162,300 L829.429,300 Z M519.44,250 L518.507,275 L296.308,275 L317.44,250 L519.44,250 Z M829.429,250 L829.429,275 L616.518,275 L635.873,250 L829.429,250 Z M521.305,200 L520.372,225 L338.573,225 L359.705,200 L521.305,200 Z M829.429,200 L829.429,225 L655.229,225 L674.584,200 L829.429,200 Z M523.17,150 L522.237,175 L380.838,175 L401.97,150 L523.17,150 Z M829.429,150 L829.429,175 L693.94,175 L713.296,150 L829.429,150 Z M525.035,100 L524.102,125 L423.103,125 L444.235,100 L525.035,100 Z M829.429,100 L829.429,125 L732.651,125 L752.007,100 L829.429,100 Z M526.9,50 L525.967,75 L465.368,75 L486.5,50 L526.9,50 Z M829.429,50 L829.429,75 L771.362,75 L790.718,50 L829.429,50 Z M528.765625,0 L527.832,25 L507.633,25 L528.765625,0 Z M829.429688,0 L829.429,25 L810.073,25 L829.429688,0 Z" id="Shape" className="fill-current text-green-500"></path>
      </g>
    </g>
  </g>
</svg>
